# xmcd
#
# Track frame offsets:
#	150
#	13231
#	26475
#	40105
#	54317
#	68688
#	82805
#	95219
#	108758
#	121645
#	135135
#	148881
#	161719
#	176352
#	190764
#	206382
#	219297
#	231752
#	244344
#	256527
#	267834
#	279478
#	290960
#
# Disc length: 4007 seconds
#
# Revision: 1
# Processed by: cddbd v1.4PL0 Copyright (c) Steve Scherf et al.
# Submitted via: audiograbber 1.81.01
#
DISCID=3a0fa517
DTITLE=Catfish Blues - Mississippi Blues Vol 3
DYEAR=1936
DGENRE=Blues
TTITLE0=Catfish Blues
TTITLE1=Ride Em On Down
TTITLE2=Rockin Chair Blues
TTITLE3=My Little Girl
TTITLE4=Let Me Be Your Boss
TTITLE5=Left My Baby Crying
TTITLE6=Sleepy Woman Blues
TTITLE7=Dont Go Down Baby
TTITLE8=Bertha Lee Blues
TTITLE9=Boogie Woogie Woman
TTITLE10=Hollow Log Blues
TTITLE11=In The Evening
TTITLE12=My Baby Left Me
TTITLE13=Cotton Pickin Blues
TTITLE14=A and V Blues
TTITLE15=Hard Working Woman
TTITLE16=Happy Home Blues
TTITLE17=Long Tall Woman
TTITLE18=Low Down
TTITLE19=Lovin Blues
TTITLE20=Street Walkin
TTITLE21=If You Dont Believe Im Leaving Baby
TTITLE22=Pony Blues
EXTD=
EXTT0=
EXTT1=
EXTT2=
EXTT3=
EXTT4=
EXTT5=
EXTT6=
EXTT7=
EXTT8=
EXTT9=
EXTT10=
EXTT11=
EXTT12=
EXTT13=
EXTT14=
EXTT15=
EXTT16=
EXTT17=
EXTT18=
EXTT19=
EXTT20=
EXTT21=
EXTT22=
PLAYORDER=
